<?xml version="1.0" encoding="UTF-8"?>
<svg id="Layer_2" xmlns="http://www.w3.org/2000/svg" viewBox="0 0 368.98 155.58">
  <defs>
    <style>
      .cls-1 {
        fill: #fff;
      }
    </style>
  </defs>
  <g id="Layer_1-2" data-name="Layer_1">
    <g>
      <g>
        <path class="cls-1" d="M55.71,12.31v2.72h-10.38v4.67h9.6v2.72h-9.6v5.32h10.64v2.72h-13.49V12.31h13.23Z"/>
        <path class="cls-1" d="M61.31,16.98c0,1.66,1.84,2.44,4.64,2.98,4.18.8,6.25,2.41,6.25,5.32,0,3.11-2.88,5.45-7.08,5.45-1.74,0-3.35-.42-4.88-1.25-1.5-.86-2.57-2.28-3.22-4.33l2.72-1.69c.65,2.93,2.59,4.54,5.4,4.54,2.46,0,4.07-1.06,4.07-2.59s-1.17-2.33-4.28-2.85c-4.18-.73-6.48-2.36-6.48-5.55,0-2.67,2.57-4.95,6.36-4.95,3.03,0,5.6,1.61,6.61,4.41l-2.72,1.56c-.49-2.08-1.89-3.24-4.15-3.24-1.97,0-3.24.96-3.24,2.21Z"/>
        <path class="cls-1" d="M82.81,28.13c1.89,0,3.4-.54,4.51-1.63,1.12-1.09,1.82-2.44,2.1-4.07l2.59,1.04c-.93,4.2-4.23,7.26-9.21,7.26-5.47.08-9.26-4.07-9.21-9.34-.1-5.21,4.05-9.44,9.21-9.34,4.62,0,7.34,2.83,8.17,6.1l-2.59,1.17c-.54-2.72-2.49-4.67-5.58-4.67-3.53,0-6.23,2.67-6.23,6.74s2.54,6.75,6.23,6.75Z"/>
        <path class="cls-1" d="M112.32,21.38c.1,5.11-4.28,9.44-9.47,9.34-5.19.1-9.57-4.23-9.47-9.34-.1-5.08,4.28-9.44,9.47-9.34,5.19-.1,9.57,4.25,9.47,9.34ZM109.34,21.38c0-3.92-2.83-6.61-6.48-6.61s-6.48,2.75-6.48,6.64,2.91,6.59,6.48,6.59,6.48-2.7,6.48-6.62Z"/>
        <path class="cls-1" d="M117.58,12.31v15.43h10.89v2.72h-13.75V12.31h2.85Z"/>
        <path class="cls-1" d="M136.75,12.31h3.94l7.47,18.16h-3.22l-1.74-4.41h-8.98l-1.74,4.41h-3.22l7.47-18.16ZM142.2,23.46l-3.48-8.79-3.48,8.79h6.95Z"/>
        <path class="cls-1" d="M155.47,12.31h6.87c5.86,0,9.08,3.84,9.08,9.21s-3.32,8.95-9.08,8.95h-6.87V12.31ZM158.33,27.87h4.02c4.02,0,6.23-2.91,6.23-6.36,0-3.81-2.15-6.61-6.23-6.61h-4.02v12.97Z"/>
        <path class="cls-1" d="M187.06,12.31v2.72h-10.38v4.67h9.6v2.72h-9.6v5.32h10.64v2.72h-13.49V12.31h13.23Z"/>
        <path class="cls-1" d="M16.08,43.25h-6.61v15.43h-2.85v-15.43H0v-2.72h16.08v2.72Z"/>
        <path class="cls-1" d="M31.36,40.53v2.72h-10.38v4.67h9.6v2.72h-9.6v5.32h10.64v2.72h-13.49v-18.16h13.23Z"/>
        <path class="cls-1" d="M42.3,56.35c1.89,0,3.4-.54,4.51-1.63,1.12-1.09,1.82-2.44,2.1-4.07l2.59,1.04c-.93,4.2-4.23,7.26-9.21,7.26-5.47.08-9.26-4.07-9.21-9.34-.1-5.21,4.05-9.44,9.21-9.34,4.62,0,7.34,2.83,8.17,6.1l-2.59,1.17c-.54-2.72-2.49-4.67-5.58-4.67-3.53,0-6.23,2.67-6.23,6.74s2.54,6.75,6.23,6.75Z"/>
        <path class="cls-1" d="M56.51,58.68h-2.85v-18.16h4.95l8.46,16.11v-16.11h2.85v18.16h-4.95l-8.46-16.08v16.08Z"/>
        <path class="cls-1" d="M91.27,49.6c.1,5.11-4.28,9.44-9.47,9.34-5.19.1-9.57-4.23-9.47-9.34-.1-5.08,4.28-9.44,9.47-9.34,5.19-.1,9.57,4.25,9.47,9.34ZM88.28,49.6c0-3.92-2.83-6.61-6.48-6.61s-6.48,2.75-6.48,6.64,2.91,6.59,6.48,6.59,6.48-2.7,6.48-6.62Z"/>
        <path class="cls-1" d="M96.53,40.53v15.43h10.89v2.72h-13.75v-18.16h2.85Z"/>
        <path class="cls-1" d="M126.69,49.6c.1,5.11-4.28,9.44-9.47,9.34-5.19.1-9.57-4.23-9.47-9.34-.1-5.08,4.28-9.44,9.47-9.34,5.19-.1,9.57,4.25,9.47,9.34ZM123.71,49.6c0-3.92-2.83-6.61-6.48-6.61s-6.48,2.75-6.48,6.64,2.91,6.59,6.48,6.59,6.48-2.7,6.48-6.62Z"/>
        <path class="cls-1" d="M128.32,49.6c-.08-5.21,3.97-9.44,9.08-9.34,2.36,0,4.31.6,5.78,1.76,1.5,1.17,2.49,2.7,2.98,4.59l-2.85.91c-.62-3.03-2.75-4.54-5.84-4.54-3.4,0-6.17,2.67-6.17,6.61s2.7,6.62,6.23,6.62c3.22,0,4.9-2.41,5.27-4.41h-7.86v-2.72h11.36v9.6h-2.44v-3.87c-1.3,2.75-3.5,4.12-6.59,4.12-5.11.08-9.03-3.97-8.95-9.34Z"/>
        <path class="cls-1" d="M149.07,40.53h2.85v18.16h-2.85v-18.16Z"/>
        <path class="cls-1" d="M161.02,40.53h3.94l7.47,18.16h-3.22l-1.74-4.41h-8.98l-1.74,4.41h-3.22l7.47-18.16ZM166.47,51.68l-3.48-8.79-3.48,8.79h6.95Z"/>
        <path class="cls-1" d="M176.87,45.19c0,1.66,1.84,2.44,4.64,2.98,4.18.8,6.25,2.41,6.25,5.32,0,3.11-2.88,5.45-7.08,5.45-1.74,0-3.35-.42-4.88-1.25-1.5-.86-2.57-2.28-3.22-4.33l2.72-1.69c.65,2.93,2.59,4.54,5.4,4.54,2.46,0,4.07-1.06,4.07-2.59s-1.17-2.33-4.28-2.85c-4.18-.73-6.48-2.36-6.48-5.55,0-2.67,2.57-4.95,6.35-4.95,3.04,0,5.6,1.61,6.61,4.41l-2.72,1.56c-.49-2.08-1.89-3.24-4.15-3.24-1.97,0-3.24.96-3.24,2.21Z"/>
        <path class="cls-1" d="M53.19,68.74h2.85v18.16h-2.85v-18.16Z"/>
        <path class="cls-1" d="M62.09,86.9h-2.85v-18.16h4.95l8.46,16.11v-16.11h2.85v18.16h-4.95l-8.46-16.08v16.08Z"/>
        <path class="cls-1" d="M96.84,77.82c.1,5.11-4.28,9.44-9.47,9.34-5.19.1-9.57-4.23-9.47-9.34-.1-5.08,4.28-9.44,9.47-9.34,5.19-.1,9.57,4.25,9.47,9.34ZM93.86,77.82c0-3.92-2.83-6.61-6.48-6.61s-6.48,2.75-6.48,6.64,2.91,6.59,6.48,6.59,6.48-2.7,6.48-6.62Z"/>
        <path class="cls-1" d="M112.37,68.74h3.22l-7.47,18.16h-3.94l-7.47-18.16h3.22l6.23,15.85,6.23-15.85Z"/>
        <path class="cls-1" d="M120.18,68.74h3.94l7.47,18.16h-3.22l-1.74-4.41h-8.98l-1.74,4.41h-3.22l7.47-18.16ZM125.63,79.9l-3.48-8.79-3.48,8.79h6.95Z"/>
        <path class="cls-1" d="M140.67,84.57c1.89,0,3.4-.54,4.51-1.63,1.12-1.09,1.82-2.44,2.1-4.07l2.59,1.04c-.93,4.2-4.23,7.26-9.21,7.26-5.47.08-9.26-4.07-9.21-9.34-.1-5.21,4.05-9.44,9.21-9.34,4.62,0,7.34,2.83,8.17,6.1l-2.59,1.17c-.54-2.72-2.49-4.67-5.58-4.67-3.53,0-6.23,2.67-6.23,6.74s2.54,6.75,6.23,6.75ZM141.24,87.68c1.17,0,2.02.75,2.02,2,0,1.32-.88,2.1-2.2,2.1-1.22,0-2.13-.57-2.33-1.71l1.38-.34c.08.44.42.75.91.75.54,0,.88-.31.88-.8s-.34-.83-.88-.83c-.39,0-.7.18-.88.47l-1.35-.26c.18-.62.34-1.48.52-2.57h1.45c-.23.67-.47,1.25-.75,1.74.31-.34.83-.54,1.25-.54Z"/>
        <path class="cls-1" d="M157.32,68.74h3.94l7.47,18.16h-3.22l-1.74-4.41h-8.98l-1.74,4.41h-3.22l7.47-18.16ZM157.86,65.35c-.44,0-.8.31-.8.86,0,.08.03.21.05.39l-1.89-.26c-.03-.13-.05-.26-.05-.39,0-1.43,1.06-2.49,2.52-2.49,1.01,0,1.5.31,2.05.83.39.34.6.49.99.49.44,0,.8-.31.8-.86,0-.08-.03-.21-.05-.39l1.89.26c.03.13.05.26.05.39,0,1.43-1.06,2.49-2.52,2.49-1.01,0-1.5-.31-2.05-.83-.39-.34-.6-.49-.99-.49ZM162.76,79.9l-3.48-8.79-3.48,8.79h6.95Z"/>
        <path class="cls-1" d="M187.53,77.82c.1,5.11-4.28,9.44-9.47,9.34-5.19.1-9.57-4.23-9.47-9.34-.1-5.08,4.28-9.44,9.47-9.34,5.19-.1,9.57,4.25,9.47,9.34ZM184.55,77.82c0-3.92-2.83-6.61-6.48-6.61s-6.48,2.75-6.48,6.64,2.91,6.59,6.48,6.59,6.48-2.7,6.48-6.62Z"/>
        <path class="cls-1" d="M62.76,96.96v2.72h-10.38v4.67h9.6v2.72h-9.6v5.32h10.64v2.72h-13.49v-18.16h13.23Z"/>
        <path class="cls-1" d="M79.75,112.79c1.89,0,3.4-.54,4.51-1.63,1.12-1.09,1.82-2.44,2.1-4.07l2.59,1.04c-.93,4.2-4.23,7.26-9.21,7.26-5.47.08-9.26-4.07-9.21-9.34-.1-5.21,4.05-9.44,9.21-9.34,4.62,0,7.34,2.83,8.17,6.1l-2.59,1.17c-.54-2.72-2.49-4.67-5.58-4.67-3.53,0-6.23,2.67-6.23,6.74s2.54,6.74,6.23,6.74Z"/>
        <path class="cls-1" d="M102.26,115.12c-.23-.44-.39-.96-.49-1.5-.1-.57-.16-1.45-.16-2.65,0-2.52-1.14-3.37-3.24-3.37h-4.41v7.52h-2.85v-18.16h8.69c3.66,0,5.84,2.15,5.84,4.93,0,2.31-1.35,4-3.63,4.8,1.76.7,2.75,2,2.85,4.31.05,1.06.13,1.84.21,2.36.1.49.34.96.7,1.35v.42h-3.5ZM99.54,104.87c1.97,0,3.11-.93,3.11-2.59s-1.14-2.59-3.11-2.59h-5.58v5.19h5.58Z"/>
        <path class="cls-1" d="M108.22,96.96h2.85v18.16h-2.85v-18.16Z"/>
        <path class="cls-1" d="M120.18,96.96h3.94l7.47,18.16h-3.22l-1.74-4.41h-8.98l-1.74,4.41h-3.22l7.47-18.16ZM125.63,108.12l-3.48-8.79-3.48,8.79h6.95Z"/>
        <path class="cls-1" d="M140.67,112.79c1.89,0,3.4-.54,4.51-1.63,1.12-1.09,1.82-2.44,2.1-4.07l2.59,1.04c-.93,4.2-4.23,7.26-9.21,7.26-5.47.08-9.26-4.07-9.21-9.34-.1-5.21,4.05-9.44,9.21-9.34,4.62,0,7.34,2.83,8.17,6.1l-2.59,1.17c-.54-2.72-2.49-4.67-5.58-4.67-3.53,0-6.23,2.67-6.23,6.74s2.54,6.74,6.23,6.74ZM141.24,115.9c1.17,0,2.02.75,2.02,2,0,1.32-.88,2.1-2.2,2.1-1.22,0-2.13-.57-2.33-1.71l1.38-.34c.08.44.42.75.91.75.54,0,.88-.31.88-.8s-.34-.83-.88-.83c-.39,0-.7.18-.88.47l-1.35-.26c.18-.62.34-1.48.52-2.57h1.45c-.23.67-.47,1.25-.75,1.74.31-.34.83-.54,1.25-.54Z"/>
        <path class="cls-1" d="M157.32,96.96h3.94l7.47,18.16h-3.22l-1.74-4.41h-8.98l-1.74,4.41h-3.22l7.47-18.16ZM157.86,93.56c-.44,0-.8.31-.8.86,0,.08.03.21.05.39l-1.89-.26c-.03-.13-.05-.26-.05-.39,0-1.43,1.06-2.49,2.52-2.49,1.01,0,1.5.31,2.05.83.39.34.6.49.99.49.44,0,.8-.31.8-.86,0-.08-.03-.21-.05-.39l1.89.26c.03.13.05.26.05.39,0,1.43-1.06,2.49-2.52,2.49-1.01,0-1.5-.31-2.05-.83-.39-.34-.6-.49-.99-.49ZM162.76,108.12l-3.48-8.79-3.48,8.79h6.95Z"/>
        <path class="cls-1" d="M187.53,106.04c.1,5.11-4.28,9.44-9.47,9.34-5.19.1-9.57-4.23-9.47-9.34-.1-5.08,4.28-9.44,9.47-9.34,5.19-.1,9.57,4.25,9.47,9.34ZM184.55,106.04c0-3.92-2.83-6.62-6.48-6.62s-6.48,2.75-6.48,6.64,2.91,6.59,6.48,6.59,6.48-2.7,6.48-6.61Z"/>
        <path class="cls-1" d="M15.74,125.18h6.87c5.86,0,9.08,3.84,9.08,9.21s-3.32,8.95-9.08,8.95h-6.87v-18.16ZM18.6,140.75h4.02c4.02,0,6.23-2.91,6.23-6.36,0-3.81-2.15-6.62-6.23-6.62h-4.02v12.97Z"/>
        <path class="cls-1" d="M52.26,134.26c.1,5.11-4.28,9.44-9.47,9.34-5.19.1-9.57-4.23-9.47-9.34-.1-5.08,4.28-9.44,9.47-9.34,5.19-.1,9.57,4.25,9.47,9.34ZM49.28,134.26c0-3.92-2.83-6.62-6.48-6.62s-6.48,2.75-6.48,6.64,2.91,6.59,6.48,6.59,6.48-2.7,6.48-6.61Z"/>
        <path class="cls-1" d="M65.87,125.18h5.97l7.13,18.16h-4.54l-1.4-3.76h-8.35l-1.4,3.76h-4.54l7.13-18.16ZM71.63,135.82l-2.78-7.42-2.78,7.42h5.55Z"/>
        <path class="cls-1" d="M84.49,125.18v14.4h10.19v3.76h-14.34v-18.16h4.15Z"/>
        <path class="cls-1" d="M95.07,134.26c-.1-5.19,4.38-9.42,9.6-9.34,4.9,0,7.86,2.57,8.82,6.33l-3.99,1.27c-.52-2.39-2.33-3.84-4.82-3.84-3.09,0-5.45,2.33-5.45,5.58,0,1.69.47,3.06,1.43,4.07.96,1.01,2.26,1.5,3.89,1.5,2.54,0,3.97-1.63,4.23-2.72h-6.85v-3.37h12.22v9.6h-3.63v-3.66c-1.01,2.41-3.22,3.92-6.35,3.92-5.03.08-9.16-3.79-9.08-9.34Z"/>
        <path class="cls-1" d="M122.33,125.18h5.97l7.13,18.16h-4.54l-1.4-3.76h-8.35l-1.4,3.76h-4.54l7.13-18.16ZM128.09,135.82l-2.78-7.42-2.78,7.42h5.55Z"/>
        <path class="cls-1" d="M147.54,143.34c-.23-.49-.39-1.01-.47-1.56-.08-.54-.1-1.43-.1-2.59,0-1.79-.96-2.72-2.65-2.72h-3.37v6.87h-4.15v-18.16h9.08c3.81,0,6.1,2.26,6.1,5.32,0,1.01-.34,1.97-.99,2.88-.65.91-1.48,1.53-2.52,1.92,1.53.42,2.67,1.79,2.78,3.76.1,1.76.31,2.96.96,3.87v.42h-4.67ZM145.75,132.7c1.48,0,2.21-.83,2.21-1.95s-.73-1.82-2.21-1.82h-4.8v3.76h4.8Z"/>
        <path class="cls-1" d="M167.51,125.18h4.51l-6.69,18.16h-6.02l-6.69-18.16h4.51l5.19,14.97,5.19-14.97Z"/>
        <path class="cls-1" d="M187.37,125.18v3.76h-9.88v3.24h9.1v3.76h-9.1v3.63h10.14v3.76h-14.29v-18.16h14.03Z"/>
      </g>
      <g>
        <path class="cls-1" d="M368.97,0h0s-155.71,0-155.71,0h0s0,0,0,0v155.56h0s155.71,0,155.71,0h0s0,0,0,0V0h0ZM219.48,149.35V6.22h143.26v143.13h-143.26Z"/>
        <rect class="cls-1" x="337.83" y="103.73" width="30.05" height="6.22"/>
        <g>
          <path class="cls-1" d="M269.89,83.12c-1.92,5.74-6.21,8.98-12.72,8.98-8.48,0-14.28-5.62-14.28-14.49,0-7.88,5.34-14.14,13.41-14.14,7.2,0,12.42,4.64,12.42,12.11,0,1.1-.12,2.14-.29,3.19h-19.45c0,2.67.81,4.69,2.44,6.08,1.68,1.33,3.6,2.03,5.81,2.03,3.95,0,6.56-2.03,7.43-5.8l5.23,2.03ZM262.64,74.71l.06-.52c0-3.42-2.73-5.51-6.44-5.51s-6.73,2.32-7.26,6.03h13.64Z"/>
          <path class="cls-1" d="M276.92,69.27h-5.52v-5.22h5.52v-8.75h6.1v8.75h10.45v5.22h-10.45v13.85c0,2.49,1.57,3.77,3.48,3.77,2.32,0,3.54-1.45,3.77-4.64l5.81,1.16c-.52,5.51-4.01,8.69-9.29,8.69-6.5,0-9.87-3.53-9.87-9.27v-13.56Z"/>
          <path class="cls-1" d="M299.85,52.69h6.68v6.66h-6.68v-6.66ZM306.24,64.05v27.47h-6.1v-27.47h6.1Z"/>
          <path class="cls-1" d="M333.82,79.06l5.52,2.03c-1.39,7.01-6.73,11.01-13.64,11.01-8.94,0-14.8-5.79-14.8-14.49s6.33-14.14,13.93-14.14c6.79,0,11.9,3.82,13.06,10.08l-5.52,1.74c-.64-4.11-3.54-6.61-7.55-6.61s-8.13,3.13-8.13,8.92,4.3,9.27,8.71,9.27c5.11,0,7.78-3.25,8.42-7.82Z"/>
        </g>
      </g>
    </g>
  </g>
</svg>