<?xml version="1.0" encoding="UTF-8"?>
<svg id="Layer_2" xmlns="http://www.w3.org/2000/svg" viewBox="0 0 768.58 83.52">
  <defs>
    <style>
      .cls-1 {
        fill: #fff;
      }
    </style>
  </defs>
  <g id="Layer_1-2" data-name="Layer_1">
    <g>
      <g>
        <path class="cls-1" d="M108.2,34.57v2.2h-8.4v3.78h7.77v2.21h-7.77v4.3h8.61v2.2h-10.92v-14.7h10.71Z"/>
        <path class="cls-1" d="M113.07,38.35c0,1.34,1.49,1.97,3.76,2.42,3.38.65,5.06,1.95,5.06,4.3,0,2.52-2.33,4.41-5.73,4.41-1.41,0-2.71-.34-3.95-1.01-1.22-.69-2.08-1.85-2.6-3.51l2.21-1.37c.52,2.37,2.1,3.67,4.37,3.67,1.99,0,3.3-.86,3.3-2.1s-.94-1.89-3.46-2.31c-3.38-.59-5.25-1.91-5.25-4.49,0-2.16,2.08-4.01,5.14-4.01,2.46,0,4.54,1.3,5.35,3.57l-2.2,1.26c-.4-1.68-1.53-2.62-3.36-2.62-1.6,0-2.62.78-2.62,1.78Z"/>
        <path class="cls-1" d="M130.82,47.38c1.53,0,2.75-.44,3.65-1.32.9-.88,1.47-1.97,1.7-3.3l2.1.84c-.76,3.4-3.42,5.88-7.45,5.88-4.43.06-7.5-3.3-7.45-7.56-.08-4.22,3.28-7.64,7.45-7.56,3.74,0,5.94,2.29,6.61,4.93l-2.1.95c-.44-2.21-2.02-3.78-4.51-3.78-2.86,0-5.04,2.16-5.04,5.46s2.06,5.46,5.04,5.46Z"/>
        <path class="cls-1" d="M155.05,41.92c.08,4.14-3.46,7.64-7.66,7.56-4.2.08-7.75-3.42-7.66-7.56-.08-4.12,3.46-7.64,7.66-7.56,4.2-.08,7.75,3.44,7.66,7.56ZM152.64,41.92c0-3.17-2.29-5.35-5.25-5.35s-5.25,2.22-5.25,5.38,2.35,5.33,5.25,5.33,5.25-2.18,5.25-5.35Z"/>
        <path class="cls-1" d="M159.65,34.57v12.49h8.82v2.2h-11.13v-14.7h2.31Z"/>
        <path class="cls-1" d="M175.51,34.57h3.19l6.05,14.7h-2.6l-1.41-3.57h-7.27l-1.41,3.57h-2.6l6.05-14.7ZM179.91,43.6l-2.81-7.12-2.81,7.12h5.63Z"/>
        <path class="cls-1" d="M191.34,34.57h5.56c4.75,0,7.35,3.11,7.35,7.45s-2.69,7.24-7.35,7.24h-5.56v-14.7ZM193.65,47.17h3.25c3.25,0,5.04-2.35,5.04-5.14,0-3.09-1.74-5.35-5.04-5.35h-3.25v10.5Z"/>
        <path class="cls-1" d="M217.25,34.57v2.2h-8.4v3.78h7.77v2.21h-7.77v4.3h8.61v2.2h-10.92v-14.7h10.71Z"/>
        <path class="cls-1" d="M236.95,36.77h-5.35v12.49h-2.31v-12.49h-5.35v-2.2h13.02v2.2Z"/>
        <path class="cls-1" d="M249.65,34.57v2.2h-8.4v3.78h7.77v2.21h-7.77v4.3h8.61v2.2h-10.92v-14.7h10.71Z"/>
        <path class="cls-1" d="M258.85,47.38c1.53,0,2.75-.44,3.65-1.32.9-.88,1.47-1.97,1.7-3.3l2.1.84c-.76,3.4-3.42,5.88-7.45,5.88-4.43.06-7.5-3.3-7.45-7.56-.08-4.22,3.28-7.64,7.45-7.56,3.74,0,5.94,2.29,6.61,4.93l-2.1.95c-.44-2.21-2.02-3.78-4.51-3.78-2.86,0-5.04,2.16-5.04,5.46s2.06,5.46,5.04,5.46Z"/>
        <path class="cls-1" d="M270.7,49.27h-2.31v-14.7h4.01l6.84,13.04v-13.04h2.31v14.7h-4.01l-6.84-13.02v13.02Z"/>
        <path class="cls-1" d="M299.17,41.92c.08,4.14-3.46,7.64-7.66,7.56-4.2.08-7.75-3.42-7.66-7.56-.08-4.12,3.46-7.64,7.66-7.56,4.2-.08,7.75,3.44,7.66,7.56ZM296.76,41.92c0-3.17-2.29-5.35-5.25-5.35s-5.25,2.22-5.25,5.38,2.35,5.33,5.25,5.33,5.25-2.18,5.25-5.35Z"/>
        <path class="cls-1" d="M303.77,34.57v12.49h8.82v2.2h-11.13v-14.7h2.31Z"/>
        <path class="cls-1" d="M328.53,41.92c.08,4.14-3.46,7.64-7.66,7.56-4.2.08-7.75-3.42-7.66-7.56-.08-4.12,3.46-7.64,7.66-7.56,4.2-.08,7.75,3.44,7.66,7.56ZM326.11,41.92c0-3.17-2.29-5.35-5.25-5.35s-5.25,2.22-5.25,5.38,2.35,5.33,5.25,5.33,5.25-2.18,5.25-5.35Z"/>
        <path class="cls-1" d="M330.19,41.92c-.06-4.22,3.21-7.64,7.35-7.56,1.91,0,3.49.48,4.68,1.43,1.22.95,2.02,2.18,2.42,3.72l-2.31.73c-.5-2.46-2.23-3.67-4.72-3.67-2.75,0-5,2.16-5,5.35s2.18,5.35,5.04,5.35c2.6,0,3.97-1.95,4.26-3.57h-6.36v-2.21h9.2v7.77h-1.97v-3.13c-1.05,2.22-2.83,3.34-5.33,3.34-4.14.06-7.31-3.21-7.24-7.56Z"/>
        <path class="cls-1" d="M347.33,34.57h2.31v14.7h-2.31v-14.7Z"/>
        <path class="cls-1" d="M357.34,34.57h3.19l6.05,14.7h-2.6l-1.41-3.57h-7.27l-1.41,3.57h-2.6l6.05-14.7ZM361.75,43.6l-2.81-7.12-2.81,7.12h5.63Z"/>
        <path class="cls-1" d="M370.51,38.35c0,1.34,1.49,1.97,3.76,2.42,3.38.65,5.06,1.95,5.06,4.3,0,2.52-2.33,4.41-5.73,4.41-1.41,0-2.71-.34-3.95-1.01-1.22-.69-2.08-1.85-2.6-3.51l2.21-1.37c.52,2.37,2.1,3.67,4.37,3.67,1.99,0,3.3-.86,3.3-2.1s-.94-1.89-3.46-2.31c-3.38-.59-5.25-1.91-5.25-4.49,0-2.16,2.08-4.01,5.14-4.01,2.46,0,4.54,1.3,5.35,3.57l-2.2,1.26c-.4-1.68-1.53-2.62-3.36-2.62-1.6,0-2.62.78-2.62,1.78Z"/>
        <path class="cls-1" d="M386.37,34.57h2.31v14.7h-2.31v-14.7Z"/>
        <path class="cls-1" d="M393.9,49.27h-2.31v-14.7h4.01l6.85,13.04v-13.04h2.31v14.7h-4.01l-6.84-13.02v13.02Z"/>
        <path class="cls-1" d="M422.38,41.92c.08,4.14-3.46,7.64-7.66,7.56-4.2.08-7.75-3.42-7.66-7.56-.08-4.12,3.46-7.64,7.66-7.56,4.2-.08,7.75,3.44,7.66,7.56ZM419.96,41.92c0-3.17-2.29-5.35-5.25-5.35s-5.25,2.22-5.25,5.38,2.35,5.33,5.25,5.33,5.25-2.18,5.25-5.35Z"/>
        <path class="cls-1" d="M435.29,34.57h2.6l-6.05,14.7h-3.19l-6.05-14.7h2.6l5.04,12.83,5.04-12.83Z"/>
        <path class="cls-1" d="M441.95,34.57h3.19l6.05,14.7h-2.6l-1.41-3.57h-7.26l-1.41,3.57h-2.6l6.05-14.7ZM446.36,43.6l-2.81-7.12-2.81,7.12h5.63Z"/>
        <path class="cls-1" d="M458.88,47.38c1.53,0,2.75-.44,3.65-1.32.9-.88,1.47-1.97,1.7-3.3l2.1.84c-.76,3.4-3.42,5.88-7.45,5.88-4.43.06-7.5-3.3-7.45-7.56-.08-4.22,3.28-7.64,7.45-7.56,3.74,0,5.94,2.29,6.61,4.93l-2.1.95c-.44-2.21-2.02-3.78-4.51-3.78-2.86,0-5.04,2.16-5.04,5.46s2.06,5.46,5.04,5.46ZM459.34,49.9c.95,0,1.64.61,1.64,1.62,0,1.07-.71,1.7-1.79,1.7-.99,0-1.72-.46-1.89-1.39l1.11-.27c.06.36.34.61.74.61.44,0,.71-.25.71-.65s-.27-.67-.71-.67c-.32,0-.57.15-.71.38l-1.09-.21c.15-.5.27-1.2.42-2.08h1.18c-.19.55-.38,1.01-.61,1.41.25-.27.67-.44,1.01-.44Z"/>
        <path class="cls-1" d="M472.7,34.57h3.19l6.05,14.7h-2.6l-1.41-3.57h-7.27l-1.41,3.57h-2.6l6.05-14.7ZM473.14,31.82c-.36,0-.65.25-.65.69,0,.06.02.17.04.31l-1.53-.21c-.02-.11-.04-.21-.04-.32,0-1.16.86-2.02,2.04-2.02.82,0,1.22.25,1.66.67.31.27.48.4.8.4.36,0,.65-.25.65-.69,0-.06-.02-.17-.04-.31l1.53.21c.02.11.04.21.04.32,0,1.16-.86,2.02-2.04,2.02-.82,0-1.22-.25-1.66-.67-.31-.27-.48-.4-.8-.4ZM477.11,43.6l-2.81-7.12-2.81,7.12h5.63Z"/>
        <path class="cls-1" d="M497.5,41.92c.08,4.14-3.46,7.64-7.66,7.56-4.2.08-7.75-3.42-7.66-7.56-.08-4.12,3.46-7.64,7.66-7.56,4.2-.08,7.75,3.44,7.66,7.56ZM495.08,41.92c0-3.17-2.29-5.35-5.25-5.35s-5.25,2.22-5.25,5.38,2.35,5.33,5.25,5.33,5.25-2.18,5.25-5.35Z"/>
        <path class="cls-1" d="M515.43,34.57v2.2h-8.4v3.78h7.77v2.21h-7.77v4.3h8.61v2.2h-10.92v-14.7h10.71Z"/>
        <path class="cls-1" d="M529.86,47.38c1.53,0,2.75-.44,3.65-1.32.9-.88,1.47-1.97,1.7-3.3l2.1.84c-.76,3.4-3.42,5.88-7.45,5.88-4.43.06-7.5-3.3-7.45-7.56-.08-4.22,3.28-7.64,7.45-7.56,3.74,0,5.94,2.29,6.61,4.93l-2.1.95c-.44-2.21-2.02-3.78-4.51-3.78-2.86,0-5.04,2.16-5.04,5.46s2.06,5.46,5.04,5.46Z"/>
        <path class="cls-1" d="M548.42,49.27c-.19-.36-.31-.78-.4-1.22-.08-.46-.13-1.18-.13-2.14,0-2.04-.92-2.73-2.62-2.73h-3.57v6.09h-2.31v-14.7h7.03c2.96,0,4.72,1.74,4.72,3.99,0,1.87-1.09,3.23-2.94,3.88,1.43.57,2.23,1.62,2.31,3.48.04.86.11,1.49.17,1.91.08.4.27.78.57,1.09v.34h-2.83ZM546.22,40.97c1.6,0,2.52-.76,2.52-2.1s-.92-2.1-2.52-2.1h-4.51v4.2h4.51Z"/>
        <path class="cls-1" d="M553.59,34.57h2.31v14.7h-2.31v-14.7Z"/>
        <path class="cls-1" d="M563.6,34.57h3.19l6.05,14.7h-2.6l-1.41-3.57h-7.27l-1.41,3.57h-2.6l6.05-14.7ZM568.01,43.6l-2.81-7.12-2.81,7.12h5.63Z"/>
        <path class="cls-1" d="M580.53,47.38c1.53,0,2.75-.44,3.65-1.32.9-.88,1.47-1.97,1.7-3.3l2.1.84c-.76,3.4-3.42,5.88-7.45,5.88-4.43.06-7.5-3.3-7.45-7.56-.08-4.22,3.28-7.64,7.45-7.56,3.74,0,5.94,2.29,6.61,4.93l-2.1.95c-.44-2.21-2.02-3.78-4.51-3.78-2.86,0-5.04,2.16-5.04,5.46s2.06,5.46,5.04,5.46ZM580.99,49.9c.95,0,1.64.61,1.64,1.62,0,1.07-.71,1.7-1.79,1.7-.99,0-1.72-.46-1.89-1.39l1.11-.27c.06.36.34.61.74.61.44,0,.71-.25.71-.65s-.27-.67-.71-.67c-.32,0-.57.15-.71.38l-1.09-.21c.15-.5.27-1.2.42-2.08h1.18c-.19.55-.38,1.01-.61,1.41.25-.27.67-.44,1.01-.44Z"/>
        <path class="cls-1" d="M594.35,34.57h3.19l6.05,14.7h-2.6l-1.41-3.57h-7.27l-1.41,3.57h-2.6l6.05-14.7ZM594.79,31.82c-.36,0-.65.25-.65.69,0,.06.02.17.04.31l-1.53-.21c-.02-.11-.04-.21-.04-.32,0-1.16.86-2.02,2.04-2.02.82,0,1.22.25,1.66.67.31.27.48.4.8.4.36,0,.65-.25.65-.69,0-.06-.02-.17-.04-.31l1.53.21c.02.11.04.21.04.32,0,1.16-.86,2.02-2.04,2.02-.82,0-1.22-.25-1.66-.67-.31-.27-.48-.4-.8-.4ZM598.76,43.6l-2.81-7.12-2.81,7.12h5.63Z"/>
        <path class="cls-1" d="M619.15,41.92c.08,4.14-3.46,7.64-7.66,7.56-4.2.08-7.75-3.42-7.66-7.56-.08-4.12,3.46-7.64,7.66-7.56,4.2-.08,7.75,3.44,7.66,7.56ZM616.73,41.92c0-3.17-2.29-5.35-5.25-5.35s-5.25,2.22-5.25,5.38,2.35,5.33,5.25,5.33,5.25-2.18,5.25-5.35Z"/>
        <path class="cls-1" d="M626.37,34.57h5.56c4.74,0,7.35,3.11,7.35,7.45s-2.69,7.24-7.35,7.24h-5.56v-14.7ZM628.68,47.17h3.25c3.25,0,5.04-2.35,5.04-5.14,0-3.09-1.74-5.35-5.04-5.35h-3.25v10.5Z"/>
        <path class="cls-1" d="M656.28,41.92c.08,4.14-3.46,7.64-7.66,7.56-4.2.08-7.75-3.42-7.66-7.56-.08-4.12,3.46-7.64,7.66-7.56,4.2-.08,7.75,3.44,7.66,7.56ZM653.86,41.92c0-3.17-2.29-5.35-5.25-5.35s-5.25,2.22-5.25,5.38,2.35,5.33,5.25,5.33,5.25-2.18,5.25-5.35Z"/>
        <path class="cls-1" d="M667.97,34.57h4.83l5.77,14.7h-3.67l-1.13-3.04h-6.76l-1.13,3.04h-3.67l5.77-14.7ZM672.64,43.18l-2.25-6-2.25,6h4.49Z"/>
        <path class="cls-1" d="M683.39,34.57v11.65h8.25v3.04h-11.61v-14.7h3.36Z"/>
        <path class="cls-1" d="M692.29,41.92c-.08-4.2,3.55-7.62,7.77-7.56,3.97,0,6.36,2.08,7.14,5.12l-3.23,1.03c-.42-1.93-1.89-3.11-3.91-3.11-2.5,0-4.41,1.89-4.41,4.51,0,1.37.38,2.48,1.16,3.3.78.82,1.83,1.22,3.15,1.22,2.06,0,3.21-1.32,3.42-2.2h-5.54v-2.73h9.89v7.77h-2.94v-2.96c-.82,1.95-2.6,3.17-5.14,3.17-4.07.06-7.41-3.07-7.35-7.56Z"/>
        <path class="cls-1" d="M714.7,34.57h4.83l5.77,14.7h-3.67l-1.13-3.04h-6.76l-1.13,3.04h-3.67l5.77-14.7ZM719.36,43.18l-2.25-6-2.25,6h4.49Z"/>
        <path class="cls-1" d="M735.45,49.27c-.19-.4-.31-.82-.38-1.26s-.08-1.16-.08-2.1c0-1.45-.78-2.2-2.14-2.2h-2.73v5.56h-3.36v-14.7h7.35c3.09,0,4.93,1.83,4.93,4.3,0,.82-.27,1.6-.8,2.33-.53.74-1.2,1.24-2.04,1.55,1.24.34,2.16,1.45,2.25,3.04.08,1.43.25,2.39.78,3.13v.34h-3.78ZM734,40.66c1.2,0,1.79-.67,1.79-1.57s-.59-1.47-1.79-1.47h-3.88v3.04h3.88Z"/>
        <path class="cls-1" d="M751.95,34.57h3.65l-5.42,14.7h-4.87l-5.42-14.7h3.65l4.2,12.11,4.2-12.11Z"/>
        <path class="cls-1" d="M768.37,34.57v3.04h-8v2.62h7.37v3.04h-7.37v2.94h8.21v3.04h-11.57v-14.7h11.36Z"/>
      </g>
      <g>
        <path class="cls-1" d="M83.6,0h0S0,0,0,0H0s0,0,0,0v83.52h0s83.6,0,83.6,0h0s0,0,0,0V0h0ZM3.34,80.18V3.34h76.91v76.84H3.34Z"/>
        <rect class="cls-1" x="66.88" y="55.69" width="16.13" height="3.34"/>
        <g>
          <path class="cls-1" d="M30.41,44.62c-1.03,3.08-3.34,4.82-6.83,4.82-4.55,0-7.67-3.02-7.67-7.78,0-4.23,2.87-7.59,7.2-7.59,3.87,0,6.67,2.49,6.67,6.5,0,.59-.06,1.15-.16,1.71h-10.44c0,1.43.44,2.52,1.31,3.27.9.72,1.93,1.09,3.12,1.09,2.12,0,3.52-1.09,3.99-3.11l2.81,1.09ZM26.51,40.11l.03-.28c0-1.84-1.46-2.96-3.46-2.96s-3.62,1.24-3.9,3.24h7.33Z"/>
          <path class="cls-1" d="M34.18,37.19h-2.96v-2.8h2.96v-4.7h3.27v4.7h5.61v2.8h-5.61v7.44c0,1.34.84,2.02,1.87,2.02,1.25,0,1.9-.78,2.03-2.49l3.12.62c-.28,2.96-2.15,4.67-4.99,4.67-3.49,0-5.3-1.9-5.3-4.98v-7.28Z"/>
          <path class="cls-1" d="M46.49,28.29h3.58v3.58h-3.58v-3.58ZM49.92,34.39v14.75h-3.27v-14.75h3.27Z"/>
          <path class="cls-1" d="M64.73,42.45l2.96,1.09c-.75,3.76-3.62,5.91-7.33,5.91-4.8,0-7.95-3.11-7.95-7.78s3.4-7.59,7.48-7.59c3.65,0,6.39,2.05,7.01,5.41l-2.96.93c-.34-2.21-1.9-3.55-4.05-3.55s-4.36,1.68-4.36,4.79,2.31,4.98,4.68,4.98c2.74,0,4.18-1.74,4.52-4.2Z"/>
        </g>
      </g>
    </g>
  </g>
</svg>