<?xml version="1.0" encoding="UTF-8"?>
<svg id="Layer_2" xmlns="http://www.w3.org/2000/svg" viewBox="0 0 155.63 367.55">
  <defs>
    <style>
      .cls-1 {
        fill: #fff;
      }
    </style>
  </defs>
  <g id="Layer_1-2" data-name="Layer_1">
    <g>
      <g>
        <path class="cls-1" d="M155.62,0h0S0,0,0,0H0s0,0,0,0v155.47h0s155.62,0,155.62,0h0s0,0,0,0V0h0ZM6.23,149.27V6.22h143.18v143.05H6.23Z"/>
        <rect class="cls-1" x="124.5" y="103.67" width="30.03" height="6.22"/>
        <g>
          <path class="cls-1" d="M56.61,83.07c-1.91,5.73-6.21,8.98-12.71,8.98-8.47,0-14.27-5.62-14.27-14.48,0-7.88,5.34-14.13,13.4-14.13,7.2,0,12.42,4.63,12.42,12.1,0,1.1-.12,2.14-.29,3.19h-19.44c0,2.66.81,4.69,2.44,6.08,1.68,1.33,3.6,2.03,5.8,2.03,3.95,0,6.56-2.03,7.43-5.79l5.22,2.03ZM49.35,74.67l.06-.52c0-3.42-2.73-5.5-6.44-5.5s-6.73,2.32-7.25,6.02h13.64Z"/>
          <path class="cls-1" d="M63.63,69.23h-5.51v-5.21h5.51v-8.75h6.09v8.75h10.44v5.21h-10.44v13.84c0,2.49,1.57,3.76,3.48,3.76,2.32,0,3.54-1.45,3.77-4.63l5.8,1.16c-.52,5.5-4,8.69-9.28,8.69-6.5,0-9.86-3.53-9.86-9.27v-13.55Z"/>
          <path class="cls-1" d="M86.55,52.66h6.67v6.66h-6.67v-6.66ZM92.93,64.01v27.45h-6.09v-27.45h6.09Z"/>
          <path class="cls-1" d="M120.49,79.01l5.51,2.03c-1.39,7.01-6.73,11-13.64,11-8.94,0-14.8-5.79-14.8-14.48s6.32-14.13,13.93-14.13c6.79,0,11.9,3.82,13.06,10.08l-5.51,1.74c-.64-4.11-3.54-6.6-7.54-6.6s-8.12,3.13-8.12,8.92,4.29,9.27,8.7,9.27c5.11,0,7.78-3.24,8.41-7.82Z"/>
        </g>
      </g>
      <g>
        <path class="cls-1" d="M12.48,311.85h2.72v10.38h4.67v-9.6h2.72v9.6h5.32v-10.64h2.72v13.49H12.48v-13.23Z"/>
        <path class="cls-1" d="M17.15,306.25c1.66,0,2.44-1.84,2.98-4.64.8-4.18,2.41-6.25,5.32-6.25,3.11,0,5.45,2.88,5.45,7.08,0,1.74-.42,3.35-1.25,4.88-.86,1.5-2.28,2.57-4.33,3.22l-1.69-2.72c2.93-.65,4.54-2.59,4.54-5.4,0-2.46-1.06-4.07-2.59-4.07s-2.33,1.17-2.85,4.28c-.73,4.18-2.36,6.49-5.55,6.49-2.67,0-4.95-2.57-4.95-6.36,0-3.04,1.61-5.6,4.41-6.62l1.56,2.72c-2.07.49-3.24,1.89-3.24,4.15,0,1.97.96,3.24,2.21,3.24Z"/>
        <path class="cls-1" d="M28.3,284.75c0-1.89-.54-3.4-1.63-4.51-1.09-1.12-2.44-1.82-4.07-2.1l1.04-2.59c4.2.93,7.26,4.23,7.26,9.21.08,5.47-4.07,9.26-9.34,9.21-5.21.1-9.44-4.05-9.34-9.21,0-4.62,2.83-7.34,6.1-8.17l1.17,2.59c-2.72.54-4.67,2.49-4.67,5.58,0,3.53,2.67,6.23,6.74,6.23s6.74-2.54,6.74-6.23Z"/>
        <path class="cls-1" d="M21.56,255.23c5.11-.1,9.44,4.28,9.34,9.47.1,5.19-4.23,9.57-9.34,9.47-5.08.1-9.44-4.28-9.34-9.47-.1-5.19,4.25-9.57,9.34-9.47ZM21.56,258.21c-3.92,0-6.62,2.83-6.62,6.49s2.75,6.49,6.64,6.49,6.59-2.91,6.59-6.49-2.7-6.49-6.61-6.49Z"/>
        <path class="cls-1" d="M12.48,249.97h15.44v-10.9h2.72v13.75H12.48v-2.85Z"/>
        <path class="cls-1" d="M12.48,230.8v-3.94l18.16-7.47v3.22l-4.41,1.74v8.98l4.41,1.74v3.22l-18.16-7.47ZM23.63,225.36l-8.79,3.48,8.79,3.48v-6.95Z"/>
        <path class="cls-1" d="M12.48,212.08v-6.88c0-5.86,3.84-9.08,9.21-9.08s8.95,3.32,8.95,9.08v6.88H12.48ZM28.04,209.23v-4.02c0-4.02-2.9-6.23-6.36-6.23-3.81,0-6.61,2.15-6.61,6.23v4.02h12.97Z"/>
        <path class="cls-1" d="M12.48,180.49h2.72v10.38h4.67v-9.6h2.72v9.6h5.32v-10.64h2.72v13.49H12.48v-13.23Z"/>
        <path class="cls-1" d="M43.42,351.47v6.62h15.43v2.85h-15.43v6.61h-2.72v-16.08h2.72Z"/>
        <path class="cls-1" d="M40.7,336.2h2.72v10.38h4.67v-9.6h2.72v9.6h5.32v-10.64h2.72v13.49h-18.16v-13.23Z"/>
        <path class="cls-1" d="M56.52,325.25c0-1.89-.54-3.4-1.63-4.51-1.09-1.12-2.44-1.82-4.07-2.1l1.04-2.59c4.2.93,7.26,4.23,7.26,9.21.08,5.47-4.07,9.26-9.34,9.21-5.21.1-9.44-4.05-9.34-9.21,0-4.62,2.83-7.34,6.1-8.17l1.17,2.59c-2.72.54-4.67,2.49-4.67,5.58,0,3.53,2.67,6.23,6.74,6.23s6.74-2.54,6.74-6.23Z"/>
        <path class="cls-1" d="M58.86,311.04v2.85h-18.16v-4.95l16.11-8.46h-16.11v-2.85h18.16v4.95l-16.08,8.46h16.08Z"/>
        <path class="cls-1" d="M49.78,276.29c5.11-.1,9.44,4.28,9.34,9.47.1,5.19-4.23,9.57-9.34,9.47-5.08.1-9.44-4.28-9.34-9.47-.1-5.19,4.25-9.57,9.34-9.47ZM49.78,279.27c-3.92,0-6.62,2.83-6.62,6.49s2.75,6.49,6.64,6.49,6.59-2.91,6.59-6.49-2.7-6.49-6.61-6.49Z"/>
        <path class="cls-1" d="M40.7,271.03h15.44v-10.9h2.72v13.75h-18.16v-2.85Z"/>
        <path class="cls-1" d="M49.78,240.86c5.11-.1,9.44,4.28,9.34,9.47.1,5.19-4.23,9.57-9.34,9.47-5.08.1-9.44-4.28-9.34-9.47-.1-5.19,4.25-9.57,9.34-9.47ZM49.78,243.85c-3.92,0-6.62,2.83-6.62,6.49s2.75,6.49,6.64,6.49,6.59-2.91,6.59-6.49-2.7-6.49-6.61-6.49Z"/>
        <path class="cls-1" d="M49.78,239.24c-5.21.08-9.44-3.97-9.34-9.08,0-2.36.6-4.31,1.76-5.79,1.17-1.5,2.7-2.49,4.59-2.98l.91,2.85c-3.03.62-4.54,2.75-4.54,5.84,0,3.4,2.67,6.17,6.62,6.17s6.61-2.7,6.61-6.23c0-3.22-2.41-4.9-4.41-5.27v7.86h-2.72v-11.36h9.6v2.44h-3.87c2.75,1.3,4.12,3.5,4.12,6.59.08,5.11-3.97,9.03-9.34,8.95Z"/>
        <path class="cls-1" d="M40.7,218.49v-2.85h18.16v2.85h-18.16Z"/>
        <path class="cls-1" d="M40.7,206.53v-3.94l18.16-7.47v3.22l-4.41,1.74v8.98l4.41,1.74v3.22l-18.16-7.47ZM51.85,201.08l-8.79,3.48,8.79,3.48v-6.95Z"/>
        <path class="cls-1" d="M45.37,190.69c1.66,0,2.44-1.84,2.98-4.64.8-4.18,2.41-6.25,5.32-6.25,3.11,0,5.45,2.88,5.45,7.08,0,1.74-.42,3.35-1.25,4.88-.86,1.5-2.28,2.57-4.33,3.22l-1.69-2.72c2.93-.65,4.54-2.59,4.54-5.4,0-2.46-1.06-4.07-2.59-4.07s-2.33,1.17-2.85,4.28c-.73,4.18-2.36,6.49-5.55,6.49-2.67,0-4.95-2.57-4.95-6.36,0-3.04,1.61-5.6,4.41-6.62l1.56,2.72c-2.07.49-3.24,1.89-3.24,4.15,0,1.97.96,3.24,2.21,3.24Z"/>
        <path class="cls-1" d="M68.92,314.36v-2.85h18.16v2.85h-18.16Z"/>
        <path class="cls-1" d="M87.07,305.47v2.85h-18.16v-4.96l16.11-8.46h-16.11v-2.85h18.16v4.95l-16.08,8.46h16.08Z"/>
        <path class="cls-1" d="M78,270.71c5.11-.1,9.44,4.28,9.34,9.47.1,5.19-4.23,9.57-9.34,9.47-5.08.1-9.44-4.28-9.34-9.47-.1-5.19,4.25-9.57,9.34-9.47ZM78,273.7c-3.92,0-6.62,2.83-6.62,6.49s2.75,6.49,6.64,6.49,6.59-2.91,6.59-6.49-2.7-6.49-6.61-6.49Z"/>
        <path class="cls-1" d="M68.92,255.18v-3.22l18.16,7.47v3.94l-18.16,7.47v-3.22l15.85-6.23-15.85-6.23Z"/>
        <path class="cls-1" d="M68.92,247.38v-3.94l18.16-7.47v3.22l-4.41,1.74v8.98l4.41,1.74v3.22l-18.16-7.47ZM80.07,241.93l-8.79,3.48,8.79,3.48v-6.95Z"/>
        <path class="cls-1" d="M84.74,226.89c0-1.89-.54-3.4-1.63-4.51-1.09-1.12-2.44-1.82-4.07-2.1l1.04-2.59c4.2.93,7.26,4.23,7.26,9.21.08,5.47-4.07,9.26-9.34,9.21-5.21.1-9.44-4.05-9.34-9.21,0-4.62,2.83-7.34,6.1-8.17l1.17,2.59c-2.72.54-4.67,2.49-4.67,5.58,0,3.53,2.67,6.23,6.74,6.23s6.74-2.54,6.74-6.23ZM87.85,226.32c0-1.17.75-2.02,2-2.02,1.32,0,2.1.88,2.1,2.21,0,1.22-.57,2.13-1.71,2.33l-.34-1.38c.44-.08.75-.42.75-.91,0-.54-.31-.88-.8-.88s-.83.34-.83.88c0,.39.18.7.47.88l-.26,1.35c-.62-.18-1.48-.34-2.57-.52v-1.45c.67.23,1.24.47,1.74.75-.34-.31-.54-.83-.54-1.25Z"/>
        <path class="cls-1" d="M65.52,209.69c0,.44.31.8.86.8.08,0,.21-.03.39-.05l-.26,1.89c-.13.03-.26.05-.39.05-1.43,0-2.49-1.06-2.49-2.52,0-1.01.31-1.5.83-2.05.34-.39.49-.6.49-.99,0-.44-.31-.8-.86-.8-.08,0-.21.03-.39.05l.26-1.89c.13-.03.26-.05.39-.05,1.43,0,2.49,1.06,2.49,2.52,0,1.01-.31,1.5-.83,2.05-.34.39-.49.6-.49.99ZM68.92,210.24v-3.94l18.16-7.47v3.22l-4.41,1.74v8.98l4.41,1.74v3.22l-18.16-7.47ZM80.07,204.79l-8.79,3.48,8.79,3.48v-6.95Z"/>
        <path class="cls-1" d="M78,180.02c5.11-.1,9.44,4.28,9.34,9.47.1,5.19-4.23,9.57-9.34,9.47-5.08.1-9.44-4.28-9.34-9.47-.1-5.19,4.25-9.57,9.34-9.47ZM78,183.01c-3.92,0-6.62,2.83-6.62,6.49s2.75,6.49,6.64,6.49,6.59-2.91,6.59-6.49-2.7-6.49-6.61-6.49Z"/>
        <path class="cls-1" d="M97.14,304.79h2.72v10.38h4.67v-9.6h2.72v9.6h5.32v-10.64h2.72v13.49h-18.16v-13.23Z"/>
        <path class="cls-1" d="M112.96,287.81c0-1.89-.54-3.4-1.63-4.51s-2.44-1.82-4.07-2.1l1.04-2.59c4.2.93,7.26,4.23,7.26,9.21.08,5.47-4.07,9.26-9.34,9.21-5.21.1-9.44-4.05-9.34-9.21,0-4.62,2.83-7.34,6.1-8.17l1.17,2.59c-2.72.54-4.67,2.49-4.67,5.58,0,3.53,2.67,6.23,6.74,6.23s6.74-2.54,6.74-6.23Z"/>
        <path class="cls-1" d="M115.29,265.3c-.44.23-.96.39-1.5.49-.57.1-1.45.16-2.65.16-2.52,0-3.37,1.14-3.37,3.24v4.41h7.52v2.85h-18.16v-8.69c0-3.66,2.15-5.84,4.93-5.84,2.31,0,3.99,1.35,4.8,3.63.7-1.76,2-2.75,4.31-2.85,1.06-.05,1.84-.13,2.36-.21.49-.1.96-.34,1.35-.7h.42v3.5ZM105.05,268.02c0-1.97-.93-3.11-2.59-3.11s-2.59,1.14-2.59,3.11v5.58h5.19v-5.58Z"/>
        <path class="cls-1" d="M97.14,259.33v-2.85h18.16v2.85h-18.16Z"/>
        <path class="cls-1" d="M97.14,247.38v-3.94l18.16-7.47v3.22l-4.41,1.74v8.98l4.41,1.74v3.22l-18.16-7.47ZM108.29,241.93l-8.79,3.48,8.79,3.48v-6.95Z"/>
        <path class="cls-1" d="M112.96,226.89c0-1.89-.54-3.4-1.63-4.51s-2.44-1.82-4.07-2.1l1.04-2.59c4.2.93,7.26,4.23,7.26,9.21.08,5.47-4.07,9.26-9.34,9.21-5.21.1-9.44-4.05-9.34-9.21,0-4.62,2.83-7.34,6.1-8.17l1.17,2.59c-2.72.54-4.67,2.49-4.67,5.58,0,3.53,2.67,6.23,6.74,6.23s6.74-2.54,6.74-6.23ZM116.07,226.32c0-1.17.75-2.02,2-2.02,1.32,0,2.1.88,2.1,2.21,0,1.22-.57,2.13-1.71,2.33l-.34-1.38c.44-.08.75-.42.75-.91,0-.54-.31-.88-.8-.88s-.83.34-.83.88c0,.39.18.7.47.88l-.26,1.35c-.62-.18-1.48-.34-2.57-.52v-1.45c.67.23,1.25.47,1.74.75-.34-.31-.54-.83-.54-1.25Z"/>
        <path class="cls-1" d="M93.74,209.69c0,.44.31.8.86.8.08,0,.21-.03.39-.05l-.26,1.89c-.13.03-.26.05-.39.05-1.43,0-2.49-1.06-2.49-2.52,0-1.01.31-1.5.83-2.05.34-.39.49-.6.49-.99,0-.44-.31-.8-.86-.8-.08,0-.21.03-.39.05l.26-1.89c.13-.03.26-.05.39-.05,1.43,0,2.49,1.06,2.49,2.52,0,1.01-.31,1.5-.83,2.05-.34.39-.49.6-.49.99ZM97.14,210.24v-3.94l18.16-7.47v3.22l-4.41,1.74v8.98l4.41,1.74v3.22l-18.16-7.47ZM108.29,204.79l-8.79,3.48,8.79,3.48v-6.95Z"/>
        <path class="cls-1" d="M106.22,180.02c5.11-.1,9.44,4.28,9.34,9.47.1,5.19-4.23,9.57-9.34,9.47-5.08.1-9.44-4.28-9.34-9.47-.1-5.19,4.25-9.57,9.34-9.47ZM106.22,183.01c-3.92,0-6.62,2.83-6.62,6.49s2.75,6.49,6.64,6.49,6.59-2.91,6.59-6.49-2.7-6.49-6.62-6.49Z"/>
        <path class="cls-1" d="M125.36,351.81v-6.87c0-5.86,3.84-9.08,9.21-9.08s8.95,3.32,8.95,9.08v6.87h-18.16ZM140.92,348.96v-4.02c0-4.02-2.9-6.23-6.35-6.23-3.81,0-6.61,2.15-6.61,6.23v4.02h12.97Z"/>
        <path class="cls-1" d="M134.43,315.29c5.11-.1,9.44,4.28,9.34,9.47.1,5.19-4.23,9.57-9.34,9.47-5.08.1-9.44-4.28-9.34-9.47-.1-5.19,4.25-9.57,9.34-9.47ZM134.43,318.28c-3.92,0-6.62,2.83-6.62,6.49s2.75,6.49,6.64,6.49,6.59-2.91,6.59-6.49-2.7-6.49-6.62-6.49Z"/>
        <path class="cls-1" d="M125.36,301.68v-5.97l18.16-7.13v4.54l-3.76,1.4v8.35l3.76,1.4v4.54l-18.16-7.13ZM135.99,295.92l-7.42,2.78,7.42,2.78v-5.55Z"/>
        <path class="cls-1" d="M125.36,283.06h14.4v-10.19h3.76v14.34h-18.16v-4.15Z"/>
        <path class="cls-1" d="M134.43,272.48c-5.19.1-9.42-4.38-9.34-9.6,0-4.9,2.57-7.86,6.33-8.82l1.27,4c-2.39.52-3.84,2.33-3.84,4.82,0,3.09,2.33,5.45,5.58,5.45,1.69,0,3.06-.47,4.07-1.43,1.01-.96,1.5-2.26,1.5-3.89,0-2.54-1.63-3.97-2.72-4.23v6.85h-3.37v-12.22h9.6v3.63h-3.66c2.41,1.01,3.92,3.22,3.92,6.36.08,5.03-3.79,9.16-9.34,9.08Z"/>
        <path class="cls-1" d="M125.36,245.22v-5.97l18.16-7.13v4.54l-3.76,1.4v8.35l3.76,1.4v4.54l-18.16-7.13ZM135.99,239.47l-7.42,2.78,7.42,2.78v-5.55Z"/>
        <path class="cls-1" d="M143.51,220.02c-.49.23-1.01.39-1.56.47-.54.08-1.43.1-2.59.1-1.79,0-2.72.96-2.72,2.65v3.37h6.87v4.15h-18.16v-9.08c0-3.81,2.26-6.1,5.32-6.1,1.01,0,1.97.34,2.88.99s1.53,1.48,1.92,2.52c.42-1.53,1.79-2.67,3.76-2.78,1.76-.1,2.96-.31,3.87-.96h.42v4.67ZM132.88,221.81c0-1.48-.83-2.21-1.95-2.21s-1.82.73-1.82,2.21v4.8h3.76v-4.8Z"/>
        <path class="cls-1" d="M125.36,200.05v-4.51l18.16,6.69v6.02l-18.16,6.69v-4.51l14.97-5.19-14.97-5.19Z"/>
        <path class="cls-1" d="M125.36,180.18h3.76v9.88h3.24v-9.1h3.76v9.1h3.63v-10.14h3.76v14.29h-18.16v-14.03Z"/>
      </g>
    </g>
  </g>
</svg>