<?xml version="1.0" encoding="UTF-8"?>
<svg id="Layer_2" xmlns="http://www.w3.org/2000/svg" viewBox="0 0 366.91 155.49">
  <defs>
    <style>
      .cls-1 {
        fill: #fff;
      }
    </style>
  </defs>
  <g id="Layer_1-2" data-name="Layer_1">
    <g>
      <g>
        <path class="cls-1" d="M155.62,0h0S0,0,0,0H0s0,0,0,0v155.47h0s155.62,0,155.62,0h0s0,0,0,0V0h0ZM6.23,149.27V6.22h143.18v143.05H6.23Z"/>
        <rect class="cls-1" x="124.5" y="103.67" width="30.03" height="6.22"/>
        <g>
          <path class="cls-1" d="M56.61,83.07c-1.91,5.73-6.21,8.98-12.71,8.98-8.47,0-14.27-5.62-14.27-14.48,0-7.88,5.34-14.13,13.4-14.13,7.2,0,12.42,4.63,12.42,12.1,0,1.1-.12,2.14-.29,3.19h-19.44c0,2.66.81,4.69,2.44,6.08,1.68,1.33,3.6,2.03,5.8,2.03,3.95,0,6.56-2.03,7.43-5.79l5.22,2.03ZM49.35,74.67l.06-.52c0-3.42-2.73-5.5-6.44-5.5s-6.73,2.32-7.25,6.02h13.64Z"/>
          <path class="cls-1" d="M63.63,69.23h-5.51v-5.21h5.51v-8.75h6.09v8.75h10.44v5.21h-10.44v13.84c0,2.49,1.57,3.76,3.48,3.76,2.32,0,3.54-1.45,3.77-4.63l5.8,1.16c-.52,5.5-4,8.69-9.28,8.69-6.5,0-9.86-3.53-9.86-9.27v-13.55Z"/>
          <path class="cls-1" d="M86.55,52.66h6.67v6.66h-6.67v-6.66ZM92.93,64.01v27.45h-6.09v-27.45h6.09Z"/>
          <path class="cls-1" d="M120.49,79.01l5.51,2.03c-1.39,7.01-6.73,11-13.64,11-8.94,0-14.8-5.79-14.8-14.48s6.32-14.13,13.93-14.13c6.79,0,11.9,3.82,13.06,10.08l-5.51,1.74c-.64-4.11-3.54-6.6-7.54-6.6s-8.12,3.13-8.12,8.92,4.29,9.27,8.7,9.27c5.11,0,7.78-3.24,8.41-7.82Z"/>
        </g>
      </g>
      <g>
        <path class="cls-1" d="M193.52,12.28v2.72h-10.38v4.67h9.6v2.72h-9.6v5.32h10.64v2.72h-13.49V12.28h13.23Z"/>
        <path class="cls-1" d="M199.12,16.95c0,1.66,1.84,2.44,4.64,2.98,4.18.8,6.25,2.41,6.25,5.32,0,3.11-2.88,5.45-7.08,5.45-1.74,0-3.35-.42-4.88-1.25-1.5-.86-2.57-2.28-3.22-4.33l2.72-1.69c.65,2.93,2.59,4.54,5.4,4.54,2.46,0,4.07-1.06,4.07-2.59,0-1.45-1.17-2.33-4.28-2.85-4.18-.73-6.48-2.36-6.48-5.55,0-2.67,2.57-4.96,6.35-4.96,3.04,0,5.6,1.61,6.62,4.41l-2.72,1.56c-.49-2.08-1.89-3.24-4.15-3.24-1.97,0-3.24.96-3.24,2.21Z"/>
        <path class="cls-1" d="M220.62,28.1c1.89,0,3.4-.54,4.51-1.63s1.82-2.44,2.1-4.07l2.59,1.04c-.93,4.2-4.23,7.26-9.21,7.26-5.47.08-9.26-4.07-9.21-9.34-.1-5.21,4.05-9.44,9.21-9.34,4.62,0,7.34,2.83,8.17,6.1l-2.59,1.17c-.54-2.72-2.49-4.67-5.58-4.67-3.53,0-6.23,2.67-6.23,6.74s2.54,6.75,6.23,6.75Z"/>
        <path class="cls-1" d="M250.13,21.36c.1,5.11-4.28,9.44-9.47,9.34-5.19.1-9.57-4.23-9.47-9.34-.1-5.08,4.28-9.44,9.47-9.34,5.19-.1,9.57,4.25,9.47,9.34ZM247.15,21.36c0-3.92-2.83-6.61-6.49-6.61s-6.49,2.75-6.49,6.64,2.91,6.59,6.49,6.59,6.49-2.7,6.49-6.61Z"/>
        <path class="cls-1" d="M255.39,12.28v15.43h10.9v2.72h-13.75V12.28h2.85Z"/>
        <path class="cls-1" d="M274.56,12.28h3.94l7.47,18.16h-3.22l-1.74-4.41h-8.98l-1.74,4.41h-3.22l7.47-18.16ZM280.01,23.43l-3.48-8.79-3.48,8.79h6.95Z"/>
        <path class="cls-1" d="M293.28,12.28h6.87c5.86,0,9.08,3.84,9.08,9.21s-3.32,8.95-9.08,8.95h-6.87V12.28ZM296.14,27.84h4.02c4.02,0,6.23-2.91,6.23-6.36,0-3.81-2.15-6.62-6.23-6.62h-4.02v12.97Z"/>
        <path class="cls-1" d="M324.87,12.28v2.72h-10.38v4.67h9.6v2.72h-9.6v5.32h10.64v2.72h-13.49V12.28h13.23Z"/>
        <path class="cls-1" d="M195.23,43.22h-6.61v15.43h-2.85v-15.43h-6.61v-2.72h16.08v2.72Z"/>
        <path class="cls-1" d="M210.51,40.5v2.72h-10.38v4.67h9.6v2.72h-9.6v5.32h10.64v2.72h-13.49v-18.16h13.23Z"/>
        <path class="cls-1" d="M221.45,56.32c1.89,0,3.4-.54,4.51-1.63s1.82-2.44,2.1-4.07l2.59,1.04c-.93,4.2-4.23,7.26-9.21,7.26-5.47.08-9.26-4.07-9.21-9.34-.1-5.21,4.05-9.44,9.21-9.34,4.62,0,7.34,2.83,8.17,6.1l-2.59,1.17c-.54-2.72-2.49-4.67-5.58-4.67-3.53,0-6.23,2.67-6.23,6.74s2.54,6.75,6.23,6.75Z"/>
        <path class="cls-1" d="M235.66,58.66h-2.85v-18.16h4.95l8.46,16.11v-16.11h2.85v18.16h-4.95l-8.46-16.08v16.08Z"/>
        <path class="cls-1" d="M270.41,49.58c.1,5.11-4.28,9.44-9.47,9.34-5.19.1-9.57-4.23-9.47-9.34-.1-5.08,4.28-9.44,9.47-9.34,5.19-.1,9.57,4.25,9.47,9.34ZM267.43,49.58c0-3.92-2.83-6.61-6.49-6.61s-6.49,2.75-6.49,6.64,2.91,6.59,6.49,6.59,6.49-2.7,6.49-6.61Z"/>
        <path class="cls-1" d="M275.67,40.5v15.43h10.9v2.72h-13.75v-18.16h2.85Z"/>
        <path class="cls-1" d="M305.84,49.58c.1,5.11-4.28,9.44-9.47,9.34-5.19.1-9.57-4.23-9.47-9.34-.1-5.08,4.28-9.44,9.47-9.34,5.19-.1,9.57,4.25,9.47,9.34ZM302.86,49.58c0-3.92-2.83-6.61-6.49-6.61s-6.49,2.75-6.49,6.64,2.91,6.59,6.49,6.59,6.49-2.7,6.49-6.61Z"/>
        <path class="cls-1" d="M307.47,49.58c-.08-5.21,3.97-9.44,9.08-9.34,2.36,0,4.31.6,5.79,1.76,1.5,1.17,2.49,2.7,2.98,4.59l-2.85.91c-.62-3.04-2.75-4.54-5.84-4.54-3.4,0-6.17,2.67-6.17,6.61s2.7,6.61,6.23,6.61c3.22,0,4.9-2.41,5.27-4.41h-7.86v-2.72h11.36v9.6h-2.44v-3.87c-1.3,2.75-3.5,4.12-6.59,4.12-5.11.08-9.03-3.97-8.95-9.34Z"/>
        <path class="cls-1" d="M328.21,40.5h2.85v18.16h-2.85v-18.16Z"/>
        <path class="cls-1" d="M340.17,40.5h3.94l7.47,18.16h-3.22l-1.74-4.41h-8.98l-1.74,4.41h-3.22l7.47-18.16ZM345.62,51.65l-3.48-8.79-3.48,8.79h6.95Z"/>
        <path class="cls-1" d="M356.02,45.17c0,1.66,1.84,2.44,4.64,2.98,4.18.8,6.25,2.41,6.25,5.32,0,3.11-2.88,5.45-7.08,5.45-1.74,0-3.35-.42-4.88-1.25-1.5-.86-2.57-2.28-3.22-4.33l2.72-1.69c.65,2.93,2.59,4.54,5.4,4.54,2.46,0,4.07-1.06,4.07-2.59,0-1.45-1.17-2.33-4.28-2.85-4.18-.73-6.49-2.36-6.49-5.55,0-2.67,2.57-4.96,6.36-4.96,3.04,0,5.6,1.61,6.62,4.41l-2.72,1.56c-.49-2.08-1.89-3.24-4.15-3.24-1.97,0-3.24.96-3.24,2.21Z"/>
        <path class="cls-1" d="M180.29,68.72h2.85v18.16h-2.85v-18.16Z"/>
        <path class="cls-1" d="M189.19,86.87h-2.85v-18.16h4.95l8.46,16.11v-16.11h2.85v18.16h-4.95l-8.46-16.08v16.08Z"/>
        <path class="cls-1" d="M223.94,77.79c.1,5.11-4.28,9.44-9.47,9.34-5.19.1-9.57-4.23-9.47-9.34-.1-5.08,4.28-9.44,9.47-9.34,5.19-.1,9.57,4.25,9.47,9.34ZM220.96,77.79c0-3.92-2.83-6.61-6.49-6.61s-6.49,2.75-6.49,6.64,2.91,6.59,6.49,6.59,6.49-2.7,6.49-6.61Z"/>
        <path class="cls-1" d="M239.47,68.72h3.22l-7.47,18.16h-3.94l-7.47-18.16h3.22l6.23,15.85,6.23-15.85Z"/>
        <path class="cls-1" d="M247.28,68.72h3.94l7.47,18.16h-3.22l-1.74-4.41h-8.98l-1.74,4.41h-3.22l7.47-18.16ZM252.72,79.87l-3.48-8.79-3.48,8.79h6.95Z"/>
        <path class="cls-1" d="M267.77,84.54c1.89,0,3.4-.54,4.51-1.63s1.82-2.44,2.1-4.07l2.59,1.04c-.93,4.2-4.23,7.26-9.21,7.26-5.47.08-9.26-4.07-9.21-9.34-.1-5.21,4.05-9.44,9.21-9.34,4.62,0,7.34,2.83,8.17,6.1l-2.59,1.17c-.54-2.72-2.49-4.67-5.58-4.67-3.53,0-6.23,2.67-6.23,6.74s2.54,6.75,6.23,6.75ZM268.34,87.65c1.17,0,2.02.75,2.02,2,0,1.32-.88,2.1-2.21,2.1-1.22,0-2.13-.57-2.33-1.71l1.38-.34c.08.44.42.75.91.75.54,0,.88-.31.88-.8s-.34-.83-.88-.83c-.39,0-.7.18-.88.47l-1.35-.26c.18-.62.34-1.48.52-2.57h1.45c-.23.67-.47,1.25-.75,1.74.31-.34.83-.54,1.25-.54Z"/>
        <path class="cls-1" d="M284.42,68.72h3.94l7.47,18.16h-3.22l-1.74-4.41h-8.98l-1.74,4.41h-3.22l7.47-18.16ZM284.96,65.32c-.44,0-.8.31-.8.86,0,.08.03.21.05.39l-1.89-.26c-.03-.13-.05-.26-.05-.39,0-1.43,1.06-2.49,2.52-2.49,1.01,0,1.5.31,2.05.83.39.34.6.49.99.49.44,0,.8-.31.8-.86,0-.08-.03-.21-.05-.39l1.89.26c.03.13.05.26.05.39,0,1.43-1.06,2.49-2.52,2.49-1.01,0-1.5-.31-2.05-.83-.39-.34-.6-.49-.99-.49ZM289.86,79.87l-3.48-8.79-3.48,8.79h6.95Z"/>
        <path class="cls-1" d="M314.63,77.79c.1,5.11-4.28,9.44-9.47,9.34-5.19.1-9.57-4.23-9.47-9.34-.1-5.08,4.28-9.44,9.47-9.34,5.19-.1,9.57,4.25,9.47,9.34ZM311.65,77.79c0-3.92-2.83-6.61-6.49-6.61s-6.49,2.75-6.49,6.64,2.91,6.59,6.49,6.59,6.49-2.7,6.49-6.61Z"/>
        <path class="cls-1" d="M193.52,96.93v2.72h-10.38v4.67h9.6v2.72h-9.6v5.32h10.64v2.72h-13.49v-18.16h13.23Z"/>
        <path class="cls-1" d="M210.5,112.76c1.89,0,3.4-.54,4.51-1.63,1.12-1.09,1.82-2.44,2.1-4.07l2.59,1.04c-.93,4.2-4.23,7.26-9.21,7.26-5.47.08-9.26-4.07-9.21-9.34-.1-5.21,4.05-9.44,9.21-9.34,4.62,0,7.34,2.83,8.17,6.1l-2.59,1.17c-.54-2.72-2.49-4.67-5.58-4.67-3.53,0-6.23,2.67-6.23,6.74s2.54,6.74,6.23,6.74Z"/>
        <path class="cls-1" d="M233.01,115.09c-.23-.44-.39-.96-.49-1.5-.1-.57-.16-1.45-.16-2.65,0-2.52-1.14-3.37-3.24-3.37h-4.41v7.52h-2.85v-18.16h8.69c3.66,0,5.84,2.15,5.84,4.93,0,2.31-1.35,3.99-3.63,4.8,1.76.7,2.75,2,2.85,4.31.05,1.06.13,1.84.21,2.36.1.49.34.96.7,1.35v.41h-3.5ZM230.29,104.85c1.97,0,3.11-.93,3.11-2.59s-1.14-2.59-3.11-2.59h-5.58v5.19h5.58Z"/>
        <path class="cls-1" d="M238.98,96.93h2.85v18.16h-2.85v-18.16Z"/>
        <path class="cls-1" d="M250.93,96.93h3.94l7.47,18.16h-3.22l-1.74-4.41h-8.98l-1.74,4.41h-3.22l7.47-18.16ZM256.38,108.09l-3.48-8.79-3.48,8.79h6.95Z"/>
        <path class="cls-1" d="M271.42,112.76c1.89,0,3.4-.54,4.51-1.63,1.12-1.09,1.82-2.44,2.1-4.07l2.59,1.04c-.93,4.2-4.23,7.26-9.21,7.26-5.47.08-9.26-4.07-9.21-9.34-.1-5.21,4.05-9.44,9.21-9.34,4.62,0,7.34,2.83,8.17,6.1l-2.59,1.17c-.54-2.72-2.49-4.67-5.58-4.67-3.53,0-6.23,2.67-6.23,6.74s2.54,6.74,6.23,6.74ZM271.99,115.87c1.17,0,2.02.75,2.02,2,0,1.32-.88,2.1-2.21,2.1-1.22,0-2.13-.57-2.33-1.71l1.38-.34c.08.44.42.75.91.75.54,0,.88-.31.88-.8s-.34-.83-.88-.83c-.39,0-.7.18-.88.47l-1.35-.26c.18-.62.34-1.48.52-2.57h1.45c-.23.67-.47,1.24-.75,1.74.31-.34.83-.54,1.25-.54Z"/>
        <path class="cls-1" d="M288.07,96.93h3.94l7.47,18.16h-3.22l-1.74-4.41h-8.98l-1.74,4.41h-3.22l7.47-18.16ZM288.62,93.54c-.44,0-.8.31-.8.86,0,.08.03.21.05.39l-1.89-.26c-.03-.13-.05-.26-.05-.39,0-1.43,1.06-2.49,2.52-2.49,1.01,0,1.5.31,2.05.83.39.34.6.49.99.49.44,0,.8-.31.8-.86,0-.08-.03-.21-.05-.39l1.89.26c.03.13.05.26.05.39,0,1.43-1.06,2.49-2.52,2.49-1.01,0-1.5-.31-2.05-.83-.39-.34-.6-.49-.99-.49ZM293.52,108.09l-3.48-8.79-3.48,8.79h6.95Z"/>
        <path class="cls-1" d="M318.29,106.01c.1,5.11-4.28,9.44-9.47,9.34-5.19.1-9.57-4.23-9.47-9.34-.1-5.08,4.28-9.44,9.47-9.34,5.19-.1,9.57,4.25,9.47,9.34ZM315.3,106.01c0-3.92-2.83-6.62-6.49-6.62s-6.49,2.75-6.49,6.64,2.91,6.59,6.49,6.59,6.49-2.7,6.49-6.61Z"/>
        <path class="cls-1" d="M180.29,125.15h6.87c5.86,0,9.08,3.84,9.08,9.21s-3.32,8.95-9.08,8.95h-6.87v-18.16ZM183.14,140.72h4.02c4.02,0,6.23-2.9,6.23-6.36,0-3.81-2.15-6.61-6.23-6.61h-4.02v12.97Z"/>
        <path class="cls-1" d="M216.81,134.23c.1,5.11-4.28,9.44-9.47,9.34-5.19.1-9.57-4.23-9.47-9.34-.1-5.08,4.28-9.44,9.47-9.34,5.19-.1,9.57,4.25,9.47,9.34ZM213.83,134.23c0-3.92-2.83-6.62-6.49-6.62s-6.48,2.75-6.48,6.64,2.91,6.59,6.48,6.59,6.49-2.7,6.49-6.61Z"/>
        <path class="cls-1" d="M230.42,125.15h5.97l7.13,18.16h-4.54l-1.4-3.76h-8.35l-1.4,3.76h-4.54l7.13-18.16ZM236.18,135.79l-2.78-7.42-2.78,7.42h5.55Z"/>
        <path class="cls-1" d="M249.04,125.15v14.4h10.19v3.76h-14.34v-18.16h4.15Z"/>
        <path class="cls-1" d="M259.62,134.23c-.1-5.19,4.38-9.42,9.6-9.34,4.9,0,7.86,2.57,8.82,6.33l-4,1.27c-.52-2.39-2.33-3.84-4.82-3.84-3.09,0-5.45,2.34-5.45,5.58,0,1.69.47,3.06,1.43,4.07.96,1.01,2.26,1.5,3.89,1.5,2.54,0,3.97-1.63,4.23-2.72h-6.85v-3.37h12.22v9.6h-3.63v-3.66c-1.01,2.41-3.22,3.92-6.36,3.92-5.03.08-9.16-3.79-9.08-9.34Z"/>
        <path class="cls-1" d="M286.88,125.15h5.97l7.13,18.16h-4.54l-1.4-3.76h-8.35l-1.4,3.76h-4.54l7.13-18.16ZM292.64,135.79l-2.78-7.42-2.78,7.42h5.55Z"/>
        <path class="cls-1" d="M312.09,143.31c-.23-.49-.39-1.01-.47-1.56-.08-.54-.1-1.43-.1-2.59,0-1.79-.96-2.72-2.65-2.72h-3.37v6.87h-4.15v-18.16h9.08c3.81,0,6.1,2.26,6.1,5.32,0,1.01-.34,1.97-.99,2.88-.65.91-1.48,1.53-2.52,1.92,1.53.42,2.67,1.79,2.78,3.76.1,1.76.31,2.96.96,3.87v.41h-4.67ZM310.3,132.68c1.48,0,2.21-.83,2.21-1.95s-.73-1.82-2.21-1.82h-4.8v3.76h4.8Z"/>
        <path class="cls-1" d="M332.06,125.15h4.51l-6.69,18.16h-6.02l-6.69-18.16h4.51l5.19,14.97,5.19-14.97Z"/>
        <path class="cls-1" d="M351.92,125.15v3.76h-9.88v3.24h9.1v3.76h-9.1v3.63h10.14v3.76h-14.29v-18.16h14.03Z"/>
      </g>
    </g>
  </g>
</svg>